# File created by Blade
# Date/Time:  Thu Jan 22 18:06:27 2015
# Frame Rate: 120.000 fps
#------------------------------------------------------
:FULLY-SPECIFIED
:DEGREES
2047
root 0.141747 32.831999 -2.939345 4.550808 -6.688794 2.202316
RightUpLeg -29.514910 -7.129221 -3.205080
RightLeg 84.578989 -0.000000 -0.000000
RightFoot 0.702069 -5.041888 0.478593
RightToeBase -4.273972 -0.000000 0.000000
LeftUpLeg -1.568525 0.720171 -10.802466
LeftLeg 2.826429 -0.000000 -0.000000
LeftFoot -12.251075 8.504082 -3.911693
LeftToeBase 8.000174 -0.000000 -0.000000
Spine -6.511966 -3.146881 -5.056452
RightShoulder -16.678251 -14.625882 -22.226292
RightArm 25.541497 23.494796 53.814732
RightForeArm -3.686456 0.000000 21.345200
RightHand 12.142351 -0.000000 -0.987484
RightHandThumb1 -24.326973 -0.000000 -32.862282
LeftShoulder -22.429650 6.287789 24.520110
LeftArm 10.776160 -40.274011 -50.115753
LeftForeArm 7.389324 0.000000 62.860268
LeftHand -3.022937 0.000000 33.967079
LeftHandThumb1 -26.253704 0.000000 33.147579
Head 12.792685 -7.311106 -0.622888
2048
root 0.128202 32.834428 -2.938370 4.481650 -7.237661 2.153931
RightUpLeg -29.494621 -7.541231 -3.131179
RightLeg 84.480519 -0.000000 -0.000000
RightFoot 0.538227 -5.375196 0.833002
RightToeBase -3.754924 -0.000000 0.000000
LeftUpLeg -1.569465 0.856855 -10.782798
LeftLeg 2.947728 -0.000000 -0.000000
LeftFoot -12.415851 8.901489 -3.902607
LeftToeBase 7.862874 -0.000000 -0.000000
Spine -6.449316 -2.987063 -5.049513
RightShoulder -16.615028 -14.581420 -22.173325
RightArm 25.815373 23.302849 53.824967
RightForeArm -3.751721 0.000000 21.503526
RightHand 12.165621 0.000000 -0.888545
RightHandThumb1 -24.326973 -0.000000 -32.862282
LeftShoulder -22.422642 6.355399 24.599171
LeftArm 9.922988 -40.669063 -49.760507
LeftForeArm 7.527749 -0.000000 63.179530
LeftHand -3.021607 0.000000 33.865346
LeftHandThumb1 -26.253704 0.000000 33.147579
Head 12.772549 -7.324161 -0.523297
2049
root 0.115195 32.837101 -2.936842 4.406969 -7.754352 2.091058
RightUpLeg -29.455118 -7.988640 -3.026757
RightLeg 84.377842 -0.000000 -0.000000
RightFoot 0.380064 -5.698298 1.352456
RightToeBase -3.192504 -0.000000 0.000000
LeftUpLeg -1.550406 0.917263 -10.753543
LeftLeg 3.050956 -0.000000 -0.000000
LeftFoot -12.560933 9.397118 -3.802011
LeftToeBase 7.634791 -0.000000 -0.000000
Spine -6.370208 -2.831240 -5.018566
RightShoulder -16.598506 -14.535931 -22.128427
RightArm 26.114503 23.054630 53.826336
RightForeArm -3.759479 -0.000000 21.627583
RightHand 12.103998 0.000000 -0.876085
RightHandThumb1 -24.326973 -0.000000 -32.862282
LeftShoulder -22.502757 6.520992 24.613573
LeftArm 9.388887 -41.066761 -49.604865
LeftForeArm 7.674788 -0.000000 63.440336
LeftHand -3.087799 -0.000000 33.973993
LeftHandThumb1 -26.253704 0.000000 33.147579
Head 12.743983 -7.345352 -0.462096
2050
root 0.106635 32.840984 -2.934715 4.376192 -8.312774 2.059089
RightUpLeg -29.461604 -8.406863 -2.984743
RightLeg 84.276630 -0.000000 -0.000000
RightFoot 0.548883 -6.037297 0.955118
RightToeBase -3.919061 -0.000000 0.000000
LeftUpLeg -1.572864 1.084116 -10.769418
LeftLeg 3.152342 -0.000000 -0.000000
LeftFoot -12.681759 9.810857 -3.624382
LeftToeBase 7.498537 -0.000000 -0.000000
Spine -6.374412 -2.643317 -5.015152
RightShoulder -16.528333 -14.465803 -22.113712
RightArm 26.310335 22.808335 53.803629
RightForeArm -3.759048 0.000000 21.764459
RightHand 12.153856 0.000000 -0.846065
RightHandThumb1 -24.326973 -0.000000 -32.862282
LeftShoulder -22.586041 6.739544 24.610899
LeftArm 8.865455 -41.423188 -49.428388
LeftForeArm 7.654929 -0.000000 63.733900
LeftHand -3.149298 -0.000000 34.080700
LeftHandThumb1 -26.253704 0.000000 33.147579
Head 12.781691 -7.384409 -0.419982
2051
root 0.095741 32.844025 -2.931851 4.351660 -8.842961 1.982076
RightUpLeg -29.457987 -8.838104 -2.883736
RightLeg 84.164241 -0.000000 -0.000000
RightFoot 0.608302 -6.353208 0.872407
RightToeBase -4.186102 -0.000000 0.000000
LeftUpLeg -1.589383 1.283695 -10.730484
LeftLeg 3.233424 -0.000000 -0.000000
LeftFoot -12.803175 10.127993 -3.534313
LeftToeBase 7.256728 -0.000000 -0.000000
Spine -6.382811 -2.483112 -4.937094
RightShoulder -16.409625 -14.351727 -22.163451
RightArm 26.432517 22.585033 53.790991
RightForeArm -3.793338 -0.000000 21.905426
RightHand 12.143619 0.000000 -0.813991
RightHandThumb1 -24.326973 -0.000000 -32.862282
LeftShoulder -22.652335 6.905102 24.610101
LeftArm 8.248200 -41.772145 -49.189848
LeftForeArm 7.773994 -0.000000 64.011374
LeftHand -3.277473 -0.000000 33.861365
LeftHandThumb1 -26.253704 0.000000 33.147579
Head 12.812657 -7.378372 -0.435358
2052
root 0.087056 32.848536 -2.930562 4.311957 -9.326933 1.912316
RightUpLeg -29.427110 -9.343722 -2.782968
RightLeg 84.053527 -0.000000 -0.000000
RightFoot 0.735384 -6.701517 0.508347
RightToeBase -4.455026 -0.000000 0.000000
LeftUpLeg -1.595321 1.383948 -10.706872
LeftLeg 3.322764 -0.000000 -0.000000
LeftFoot -12.925531 10.563006 -3.388197
LeftToeBase 7.130610 -0.000000 -0.000000
Spine -6.359460 -2.350740 -4.858618
RightShoulder -16.335834 -14.301873 -22.181275
RightArm 26.619684 22.382698 53.798371
RightForeArm -3.748252 -0.000000 22.094626
RightHand 12.109342 -0.000000 -0.748346
RightHandThumb1 -24.326973 -0.000000 -32.862282
LeftShoulder -22.697324 7.011187 24.630856
LeftArm 7.560947 -42.076791 -48.911174
LeftForeArm 7.935292 -0.000000 64.275871
LeftHand -3.291337 -0.000000 33.909682
LeftHandThumb1 -26.253704 0.000000 33.147579
Head 12.862377 -7.420156 -0.467429
2053
root 0.077424 32.852552 -2.925586 4.258407 -9.839238 1.847494
RightUpLeg -29.380752 -9.798789 -2.695279
RightLeg 83.945329 -0.000000 -0.000000
RightFoot 0.854533 -6.983195 0.221621
RightToeBase -4.526239 -0.000000 0.000000
LeftUpLeg -1.572981 1.544915 -10.686477
LeftLeg 3.410738 -0.000000 -0.000000
LeftFoot -13.054560 10.936102 -3.167618
LeftToeBase 6.844012 -0.000000 -0.000000
Spine -6.325892 -2.142312 -4.802214
RightShoulder -16.331793 -14.314429 -22.177028
RightArm 26.869639 22.184485 53.841136
RightForeArm -3.743567 -0.000000 22.251445
RightHand 12.091087 -0.000000 -0.704125
RightHandThumb1 -24.326973 -0.000000 -32.862282
LeftShoulder -22.758234 7.140562 24.645349
LeftArm 7.027445 -42.358657 -48.709817
LeftForeArm 8.168932 -0.000000 64.486010
LeftHand -3.442665 -0.000000 33.871359
LeftHandThumb1 -26.253704 0.000000 33.147579
Head 12.886992 -7.454456 -0.460195
2054
root 0.068958 32.857643 -2.919795 4.226229 -10.329634 1.764050
RightUpLeg -29.339112 -10.294236 -2.587154
RightLeg 83.818581 -0.000000 -0.000000
RightFoot 0.877117 -7.315941 0.274536
RightToeBase -4.501009 -0.000000 0.000000
LeftUpLeg -1.567842 1.715796 -10.647402
LeftLeg 3.469835 -0.000000 -0.000000
LeftFoot -13.119774 11.224488 -2.948138
LeftToeBase 6.275332 -0.000000 -0.000000
Spine -6.316753 -1.975118 -4.696019
RightShoulder -16.279487 -14.264517 -22.214811
RightArm 27.046920 22.008243 53.868323
RightForeArm -3.795918 0.000000 22.402874
RightHand 12.093775 -0.000000 -0.718941
RightHandThumb1 -24.326973 -0.000000 -32.862282
LeftShoulder -22.809327 7.310774 24.611166
LeftArm 6.452901 -42.694415 -48.464752
LeftForeArm 8.375459 0.000000 64.733232
LeftHand -3.583842 0.000000 33.813469
LeftHandThumb1 -26.253704 0.000000 33.147579
Head 12.923404 -7.515881 -0.532171
2055
root 0.058867 32.862962 -2.916889 4.195249 -10.828912 1.684000
RightUpLeg -29.308712 -10.774754 -2.461748
RightLeg 83.676897 -0.000000 -0.000000
RightFoot 1.098732 -7.665074 -0.088698
RightToeBase -5.009425 -0.000000 0.000000
LeftUpLeg -1.580340 1.879285 -10.605587
LeftLeg 3.589454 -0.000000 -0.000000
LeftFoot -13.239825 11.586039 -2.667466
LeftToeBase 5.690980 -0.000000 -0.000000
Spine -6.294764 -1.785804 -4.610593
RightShoulder -16.253910 -14.197788 -22.226969
RightArm 27.211852 21.785458 53.848494
RightForeArm -3.774512 -0.000000 22.532667
RightHand 12.112433 -0.000000 -0.696107
RightHandThumb1 -24.326973 -0.000000 -32.862282
LeftShoulder -22.874229 7.435371 24.603159
LeftArm 5.889072 -42.966323 -48.203262
LeftForeArm 8.524899 -0.000000 64.949548
LeftHand -3.817959 -0.000000 34.041414
LeftHandThumb1 -26.253704 0.000000 33.147579
Head 12.941597 -7.563268 -0.554079
2056
root 0.050849 32.869204 -2.912539 4.207564 -11.298487 1.585412
RightUpLeg -29.295579 -11.277012 -2.310875
RightLeg 83.502509 -0.000000 -0.000000
RightFoot 1.180188 -8.022678 -0.120221
RightToeBase -4.886687 -0.000000 0.000000
LeftUpLeg -1.637898 1.984385 -10.552980
LeftLeg 3.707498 -0.000000 -0.000000
LeftFoot -13.336477 11.920277 -2.547235
LeftToeBase 4.934674 -0.000000 -0.000000
Spine -6.337008 -1.600093 -4.482397
RightShoulder -16.250636 -14.179393 -22.260269
RightArm 27.402602 21.571884 53.853068
RightForeArm -3.821857 -0.000000 22.648260
RightHand 12.188245 -0.000000 -0.692542
RightHandThumb1 -24.326973 -0.000000 -32.862282
LeftShoulder -22.937475 7.565679 24.581093
LeftArm 5.395143 -43.274582 -47.986887
LeftForeArm 8.771108 -0.000000 65.083912
LeftHand -3.783468 -0.000000 33.499771
LeftHandThumb1 -26.253704 0.000000 33.147579
Head 13.005054 -7.569739 -0.627329
2057
root 0.041661 32.875455 -2.904768 4.218336 -11.780596 1.453098
RightUpLeg -29.256746 -11.810214 -2.122716
RightLeg 83.289636 -0.000000 -0.000000
RightFoot 1.300053 -8.353505 -0.225833
RightToeBase -4.808066 -0.000000 0.000000
LeftUpLeg -1.708507 2.077846 -10.465205
LeftLeg 3.912882 -0.000000 -0.000000
LeftFoot -13.550975 12.324314 -2.471470
LeftToeBase 5.096370 -0.000000 -0.000000
Spine -6.373568 -1.411175 -4.295439
RightShoulder -16.191316 -14.058098 -22.354473
RightArm 27.484454 21.383716 53.845523
RightForeArm -3.878318 0.000000 22.728977
RightHand 12.347578 -0.000000 -0.647673
RightHandThumb1 -24.326973 -0.000000 -32.862282
LeftShoulder -23.025644 7.673194 24.531995
LeftArm 4.865960 -43.484808 -47.703410
LeftForeArm 8.895589 0.000000 65.207927
LeftHand -3.884806 -0.000000 33.681130
LeftHandThumb1 -26.253704 0.000000 33.147579
Head 13.058451 -7.598905 -0.775664
2058
root 0.033792 32.882759 -2.895351 4.227061 -12.268476 1.342289
RightUpLeg -29.209543 -12.241929 -1.974237
RightLeg 83.075474 -0.000000 -0.000000
RightFoot 1.280775 -8.612073 0.146253
RightToeBase -4.211720 -0.000000 0.000000
LeftUpLeg -1.753867 2.228855 -10.398440
LeftLeg 4.050940 -0.000000 -0.000000
LeftFoot -13.685608 12.664999 -2.282503
LeftToeBase 4.881616 -0.000000 -0.000000
Spine -6.419366 -1.222471 -4.136880
RightShoulder -16.126148 -13.976460 -22.420478
RightArm 27.578146 21.208158 53.840861
RightForeArm -3.889058 -0.000000 22.888960
RightHand 12.232120 0.000000 -0.674297
RightHandThumb1 -24.326973 -0.000000 -32.862282
LeftShoulder -23.134748 7.779886 24.498325
LeftArm 4.369516 -43.692741 -47.457435
LeftForeArm 9.039804 -0.000000 65.310408
LeftHand -3.814151 -0.000000 33.798494
LeftHandThumb1 -26.253704 0.000000 33.147579
Head 13.129002 -7.608522 -0.894854
